<svg width="24" height="25" viewBox="0 0 24 25" fill="none" xmlns="http://www.w3.org/2000/svg">
<g id="fluent:lock-multiple-24-regular">
<g id="Group">
<path id="Vector" d="M13.25 14.1588C12.9185 14.1588 12.6005 14.0271 12.3661 13.7926C12.1317 13.5582 12 13.2403 12 12.9088C12 12.5772 12.1317 12.2593 12.3661 12.0249C12.6005 11.7904 12.9185 11.6588 13.25 11.6588C13.5815 11.6588 13.8995 11.7904 14.1339 12.0249C14.3683 12.2593 14.5 12.5772 14.5 12.9088C14.5 13.2403 14.3683 13.5582 14.1339 13.7926C13.8995 14.0271 13.5815 14.1588 13.25 14.1588Z" fill="black"/>
<path id="Vector_2" d="M16.75 5.90875C16.75 4.98049 16.3813 4.09026 15.7249 3.43388C15.0685 2.7775 14.1783 2.40875 13.25 2.40875C12.3217 2.40875 11.4315 2.7775 10.7751 3.43388C10.1187 4.09026 9.75 4.98049 9.75 5.90875V6.90875H8.75C8.15326 6.90875 7.58097 7.14581 7.15901 7.56776C6.73705 7.98972 6.5 8.56202 6.5 9.15875V16.6588C6.5 17.2555 6.73705 17.8278 7.15901 18.2497C7.58097 18.6717 8.15326 18.9088 8.75 18.9088H17.75C18.3467 18.9088 18.919 18.6717 19.341 18.2497C19.7629 17.8278 20 17.2555 20 16.6588V9.15875C20 8.56202 19.7629 7.98972 19.341 7.56776C18.919 7.14581 18.3467 6.90875 17.75 6.90875H16.75V5.90875ZM11.25 5.90875C11.25 5.37832 11.4607 4.86961 11.8358 4.49454C12.2109 4.11947 12.7196 3.90875 13.25 3.90875C13.7804 3.90875 14.2891 4.11947 14.6642 4.49454C15.0393 4.86961 15.25 5.37832 15.25 5.90875V6.90875H11.25V5.90875ZM18.5 9.15875V16.6588C18.5 17.0728 18.164 17.4088 17.75 17.4088H8.75C8.55109 17.4088 8.36032 17.3297 8.21967 17.1891C8.07902 17.0484 8 16.8577 8 16.6588V9.15875C8 8.95984 8.07902 8.76907 8.21967 8.62842C8.36032 8.48777 8.55109 8.40875 8.75 8.40875H17.75C17.9489 8.40875 18.1397 8.48777 18.2803 8.62842C18.421 8.76907 18.5 8.95984 18.5 9.15875Z" fill="black"/>
<path id="Vector_3" d="M14.2499 21.4087C14.7154 21.4089 15.1693 21.2647 15.5494 20.9961C15.9294 20.7274 16.2168 20.3475 16.3719 19.9087H8.24995C7.5206 19.9087 6.82113 19.619 6.3054 19.1033C5.78968 18.5876 5.49995 17.8881 5.49995 17.1587V10.5367C5.06116 10.6919 4.68128 10.9793 4.41264 11.3593C4.14399 11.7393 3.99981 12.1933 3.99995 12.6587V17.1587C3.99995 17.7169 4.10988 18.2695 4.32346 18.7851C4.53704 19.3008 4.8501 19.7693 5.24475 20.1639C5.63939 20.5586 6.10791 20.8716 6.62354 21.0852C7.13918 21.2988 7.69183 21.4087 8.24995 21.4087H14.2499Z" fill="black"/>
</g>
</g>
</svg>
