<svg width="20" height="21" viewBox="0 0 20 21" fill="none" xmlns="http://www.w3.org/2000/svg">
<g id="fluent:mail-copy-20-regular">
<g id="Group">
<path id="Vector" d="M4 5.90875C4 5.24571 4.26339 4.60983 4.73223 4.14099C5.20107 3.67214 5.83696 3.40875 6.5 3.40875H15.5C16.163 3.40875 16.7989 3.67214 17.2678 4.14099C17.7366 4.60983 18 5.24571 18 5.90875V12.9088C18 13.5718 17.7366 14.2077 17.2678 14.6765C16.7989 15.1454 16.163 15.4088 15.5 15.4088H6.5C5.83696 15.4088 5.20107 15.1454 4.73223 14.6765C4.26339 14.2077 4 13.5718 4 12.9088V5.90875ZM10.746 10.3398L5 7.36975V12.9088C5 13.3066 5.15804 13.6881 5.43934 13.9694C5.72064 14.2507 6.10218 14.4088 6.5 14.4088H15.5C15.8978 14.4088 16.2794 14.2507 16.5607 13.9694C16.842 13.6881 17 13.3066 17 12.9088V7.37175L11.254 10.3398L11.172 10.3778C11.1026 10.4033 11.0284 10.4132 10.9547 10.4066C10.8811 10.4 10.8098 10.3772 10.746 10.3398ZM15.5 4.40875H6.5C6.10218 4.40875 5.72064 4.56679 5.43934 4.84809C5.15804 5.1294 5 5.51093 5 5.90875V6.20975L11 9.32875L17 6.21075V5.90875C17 5.51093 16.842 5.1294 16.5607 4.84809C16.2794 4.56679 15.8978 4.40875 15.5 4.40875Z" fill="black"/>
<path id="Vector_2" d="M13.5 17.4088C14.318 17.4088 15.044 17.0158 15.5 16.4088H6.5C5.57174 16.4088 4.6815 16.04 4.02513 15.3836C3.36875 14.7272 3 13.837 3 12.9088V5.90875C2.393 6.36475 2 7.09075 2 7.90875V12.9088C2 14.1022 2.47411 15.2468 3.31802 16.0907C4.16193 16.9346 5.30653 17.4088 6.5 17.4088H13.5Z" fill="black"/>
</g>
</g>
</svg>
