<svg width="16" height="19" viewBox="0 0 16 19" fill="none" xmlns="http://www.w3.org/2000/svg">
<g id="fa-regular:user" clip-path="url(#clip0_17_1552)">
<path id="Vector" d="M11.2 11.0963C10.175 11.0963 9.68214 11.6588 8 11.6588C6.31786 11.6588 5.82857 11.0963 4.8 11.0963C2.15 11.0963 0 13.2127 0 15.8213V16.7213C0 17.6529 0.767857 18.4088 1.71429 18.4088H14.2857C15.2321 18.4088 16 17.6529 16 16.7213V15.8213C16 13.2127 13.85 11.0963 11.2 11.0963ZM14.2857 16.7213H1.71429V15.8213C1.71429 14.1478 3.1 12.7838 4.8 12.7838C5.32143 12.7838 6.16786 13.3463 8 13.3463C9.84643 13.3463 10.675 12.7838 11.2 12.7838C12.9 12.7838 14.2857 14.1478 14.2857 15.8213V16.7213ZM8 10.5338C10.8393 10.5338 13.1429 8.26619 13.1429 5.47127C13.1429 2.67635 10.8393 0.408768 8 0.408768C5.16071 0.408768 2.85714 2.67635 2.85714 5.47127C2.85714 8.26619 5.16071 10.5338 8 10.5338ZM8 2.09627C9.88929 2.09627 11.4286 3.6115 11.4286 5.47127C11.4286 7.33103 9.88929 8.84627 8 8.84627C6.11071 8.84627 4.57143 7.33103 4.57143 5.47127C4.57143 3.6115 6.11071 2.09627 8 2.09627Z" fill="black"/>
</g>
<defs>
<clipPath id="clip0_17_1552">
<rect width="16" height="18" fill="white" transform="translate(0 0.408768)"/>
</clipPath>
</defs>
</svg>
